inDegrees=yes
name=ik_S44_A10_T03
DataType=double
version=3
OpenSimVersion=4.3-2021-08-27-4bc7ad9
endheader
time	pelvis_tilt	pelvis_list	pelvis_rotation	pelvis_tx	pelvis_ty	pelvis_tz	hip_flexion_r	hip_adduction_r	hip_rotation_r	knee_angle_r	knee_angle_r_beta	ankle_angle_r	subtalar_angle_r	mtp_angle_r	hip_flexion_l	hip_adduction_l	hip_rotation_l	knee_angle_l	knee_angle_l_beta	ankle_angle_l	subtalar_angle_l	mtp_angle_l	lumbar_extension	lumbar_bending	lumbar_rotation	arm_flex_r	arm_add_r	arm_rot_r	elbow_flex_r	pro_sup_r	wrist_flex_r	wrist_dev_r	arm_flex_l	arm_add_l	arm_rot_l	elbow_flex_l	pro_sup_l	wrist_flex_l	wrist_dev_l
0	0	0	0	0	0.9399999999999999	0	0	0	0	0	0	0	0	0	0	0	0	0	0	0	0	0	0	0	0	0	0	0	0	89.99999999963507	0	0	0	0	0	0	89.99999999869995	0	0
0.02	-0.604087375636807	-0.9857064073323756	20.72758641804482	0	0.9399999999999999	0	2.083272707214959	-0.9694051527736157	-0.7005835536086422	3.24879176129725	0.0567021129463027	0	0	0	2.083272707214959	-0.9694051527736157	-0.7005835536086422	3.24879176129725	0.0567021129463027	0	0	0	-0.6412175096118549	0.1567670155355988	8.27914950654554	7.807057285180575	2.18340823110953	9.396745693313369	17.48925230796943	83.67798383880194	0	0	12.56501302217402	6.649908378571279	11.84114695272515	8.848135317650195	82.35497053222763	0	0
0.04	-0.5922809431974572	-0.991622857449862	20.70984192496233	0	0.9399999999999999	0	2.100841853996494	-0.9785867644670453	-0.7065484371852844	3.274663771010653	0.05715366469990953	0	0	0	2.100841853996494	-0.9785867644670453	-0.7065484371852844	3.274663771010653	0.05715366469990953	0	0	0	-0.6321389818557467	0.1466874154512812	8.289910286095111	7.806781818478229	2.277441046070088	9.32147977398502	17.58290624658482	83.68870406406516	0	0	12.57505648730016	6.635184162219002	11.85739717461359	8.731511591344633	82.50427835871446	0	0
0.06	-0.5850632775847273	-0.9861836534360822	20.70495841342119	0	0.9399999999999999	0	2.119074411229295	-0.988118980401632	-0.7127400258151445	3.301478141423416	0.05762166375046159	0	0	0	2.119074411229295	-0.988118980401632	-0.7127400258151445	3.301478141423416	0.05762166375046159	0	0	0	-0.623257491139516	0.1487701202647141	8.305176034089129	7.820938093917967	2.354324162541425	9.234594236082541	17.54632335415164	83.67315235677545	0	0	12.57021344042841	6.623266533601549	11.93297310819074	8.677850918383649	82.46848860484162	0	0
0.08	-0.5508600126101042	-0.9829520841463587	20.69868437082628	0	0.9399999999999999	0	2.132554799641303	-0.9951507554410882	-0.7173168530948872	3.32127040080118	0.05796710384301231	-3.238148520125307e-51	0	0	2.132554799641303	-0.9951507554410882	-0.7173168530948872	3.32127040080118	0.05796710384301231	-3.238148520125307e-51	0	0	-0.5897202131645518	0.1390800097220154	8.332084908224537	7.777701774538201	2.455943254119431	9.12746262437704	17.49209738154147	83.54518406627096	0	5.38806921148701e-36	12.50839667344653	6.56864932535395	12.02745437082816	8.597484520223993	82.41830494619617	0	5.38806921148701e-36
0.1	-0.5430340110844714	-0.9831064394574162	20.67629686098473	0	0.9399999999999999	0	2.146215639825956	-1.002271897758029	-0.72195504964885	3.341304112048683	0.05831675806567505	0	0	0	2.146215639825956	-1.002271897758029	-0.72195504964885	3.341304112048683	0.05831675806567505	0	0	0	-0.5823287508998356	0.1358420626962289	8.342200928674394	7.757002375938595	2.522088412764449	9.105565370718852	17.44561479797624	83.33349841120479	0	5.498519459413084e-54	12.48705596231731	6.520284994189137	12.07966495283925	8.549731246131335	82.32011023920376	0	5.498519459413084e-54
0.12	-0.528990236588135	-0.9676607682024959	20.72432363134433	0	0.9399999999999999	0	2.946550730747928	-1.364311839634638	-1.007892435011199	4.165969950753045	0.07270989217978666	0	0	0	2.946550730747928	-1.364311839634638	-1.007892435011199	4.165969950753045	0.07270989217978666	0	0	0	-0.5684587631459397	0.1370340604052951	8.267298744716111	7.750260253895624	2.530656677996402	9.126827768298941	17.43884645169822	83.18608482936372	0	0	12.46115412069458	6.495461303130673	12.03107410450581	8.535830814587669	82.30596339198472	0	0
0.14	-0.4783461160119816	-0.9286097443401637	20.97937329829978	0	0.9399999999999999	0	5.888465228409123	-2.56083036480434	-2.050912301621793	6.22032949491784	0.1085652302452322	0	0	0	5.888465228409123	-2.56083036480434	-2.050912301621793	6.22032949491784	0.1085652302452322	0	0	0	-0.5337203701771782	0.133131867465158	7.989564837192051	7.635443401044209	2.539701779812548	9.224342386847004	17.45484661950424	82.99033340908896	0	0	12.35578030858229	6.455185599537645	11.91768653346316	8.488364796341159	82.45115578354564	0	0
0.16	-0.4693437574595213	-0.9050695802566214	21.11297231162875	0	0.9399999999999999	0	7.526654826267919	-3.238485761611627	-2.606569084162843	7.842238392389935	0.1368728806735114	0	0	0	7.526654826267919	-3.238485761611627	-2.606569084162843	7.842238392389935	0.1368728806735114	0	0	0	-0.517140550772009	0.1159533205212674	7.84529184209456	7.586810944605349	2.53347617222019	9.297231936549373	17.43359557566209	82.97739907396573	0	0	12.32217596100766	6.441701847036763	11.82625444219842	8.360653949048693	82.54127621995859	0	0
0.18	-0.4521563210287806	-0.8803517439981784	21.21886546289388	0	0.9399999999999999	0	8.640881364448363	-3.655669631453675	-2.971039059895693	8.893364537935025	0.1552184927670703	0	0	0	8.640881364448363	-3.655669631453675	-2.971039059895693	8.893364537935025	0.1552184927670703	0	0	0	-0.4992844297439621	0.1169936737453996	7.743017785362899	7.497876302958121	2.454301549762975	9.300157678926777	17.44206422933991	83.07672825594263	0	0	12.30369088233051	6.444965197968394	11.80692432906059	8.31695595436241	82.57333867466606	0	0
0.2	-0.4235603511940601	-0.8652328292926468	21.35088157889559	0	0.9399999999999999	0	10.01304520539333	-4.1534420155518	-3.410836214003054	10.2028906685004	0.1780740353863372	0	0	0	10.01304520539333	-4.1534420155518	-3.410836214003054	10.2028906685004	0.1780740353863372	0	0	0	-0.4822466605213475	0.1206146284209544	7.621954547070581	7.433645743295599	2.42145025623897	9.255295928895938	17.40430293036681	83.19144099472302	0	0	12.23441350249577	6.459851657487176	11.79029817820901	8.260780259650758	82.6112713626673	0	0
0.22	-0.3918658638813297	-0.8378906472742801	21.40617778909488	0	0.9399999999999999	0	10.31126426744957	-4.24046434754049	-3.500396083562983	10.45535334003994	0.1824803402430832	0	0	0	10.31126426744957	-4.24046434754049	-3.500396083562983	10.45535334003994	0.1824803402430832	0	0	0	-0.4438541369712938	0.1280506423053401	7.599822018538103	7.311728977857151	2.406557255843176	9.184119855427612	17.27235609983896	83.15506330429469	0	0	12.15336493818519	6.488829149062328	11.78272223132443	8.348521193629889	82.65259896131926	0	0
0.24	-0.371054895856593	-0.8440614537065849	21.42786036764388	0	0.9399999999999999	0	10.46489975212845	-4.283512135501842	-3.546460604329515	10.57526001228357	0.1845731064688442	0	0	0	10.46489975212845	-4.283512135501842	-3.546460604329515	10.57526001228357	0.1845731064688442	0	0	0	-0.427341272113333	0.1114649706169134	7.571196055324539	7.220478481370615	2.420988960641744	9.168780691626807	17.35646107258817	83.13765607755926	0	0	12.16245520503331	6.443541510044559	11.72982263750878	8.22094045381529	82.58201666369024	0	0
